<svg width="842" height="595" viewBox="0 0 842 595" fill="none" xmlns="http://www.w3.org/2000/svg">
<circle cx="421" cy="298" r="246" fill="white"/>
<rect x="180" y="301.5" width="334.461" height="334.461" rx="30" transform="rotate(-45 180 301.5)" fill="#EEC01B"/>
<rect x="269.549" y="301.5" width="207.821" height="207.821" rx="30" transform="rotate(-45 269.549 301.5)" fill="white"/>
<circle cx="321.211" cy="206.211" r="53.5788" transform="rotate(-45 321.211 206.211)" fill="white"/>
<circle cx="416.5" cy="300.351" r="67.3794" transform="rotate(-45 416.5 300.351)" fill="#EEC01B"/>
<circle cx="511.789" cy="206.211" r="53.5788" transform="rotate(-45 511.789 206.211)" fill="white"/>
<circle cx="511.789" cy="396.789" r="53.5788" transform="rotate(-45 511.789 396.789)" fill="white"/>
<circle cx="318.915" cy="399.085" r="53.5788" transform="rotate(-45 318.915 399.085)" fill="white"/>
<rect x="369.961" y="300.954" width="66.9686" height="66.9686" rx="10" transform="rotate(-45 369.961 300.954)" fill="white"/>
<path d="M409.952 106.768C413.862 102.832 420.229 102.832 424.139 106.768L452.132 134.941C458.4 141.25 453.931 151.989 445.038 151.989H389.053C380.16 151.989 375.691 141.25 381.959 134.941L409.952 106.768Z" fill="white"/>
<path d="M223.671 307.236C219.735 303.326 219.735 296.959 223.671 293.049L251.844 265.057C258.153 258.788 268.892 263.257 268.892 272.15V328.135C268.892 337.028 258.153 341.497 251.844 335.229L223.671 307.236Z" fill="white"/>
<path d="M424.139 495.142C420.229 499.077 413.862 499.077 409.952 495.142L381.959 466.968C375.691 460.66 380.16 449.92 389.053 449.92H445.038C453.931 449.92 458.4 460.66 452.132 466.968L424.139 495.142Z" fill="white"/>
<path d="M608.797 294.672C612.732 298.583 612.732 304.949 608.797 308.86L580.624 336.852C574.315 343.121 563.575 338.652 563.575 329.758V273.774C563.575 264.88 574.315 260.412 580.624 266.68L608.797 294.672Z" fill="white"/>
</svg>
